{"title":"The.Butler.2013.BRRiP.XviD Acesn8s","uid":9378859,"size":734917829,"categoryP":"video","categoryS":"movies","magnet":"?xt=urn:btih:31d78b8ded5d7bf23867210ce8cad2a1faa1c117&amp;dn=The.Butler.2013.BRRiP.XviD+Acesn8s&amp;tr=udp%3A%2F%2Ftracker.openbittorrent.com%3A80&amp;tr=udp%3A%2F%2Fopen.demonii.com%3A1337&amp;tr=udp%3A%2F%2Ftracker.coppersurfer.tk%3A6969&amp;tr=udp%3A%2F%2Fexodus.desync.com%3A6969","seeders":4,"leechers":0,"uploader":"Acesn8s","files":-1,"time":1387675565,"description":"The.Butler.2013.BRRiP.Xvid Acesn8s\n\n**********************************************************************************\n\nGeneral:\n\nFormat                                   : AVI\nFormat/Info                              : Audio Video Interleave\nFile size                                : 701 MiB\nDuration                                 : 2h 12mn\nOverall bit rate                         : 742 Kbps\nWriting application                      : VirtualDubMod 1.5.10.2 (build 2542/release)\nWriting library                          : VirtualDubMod build 2542/release\n\n**********************************************************************************\n\nVideo\n\nID                                       : 0\nFormat                                   : MPEG-4 Visual\nFormat profile                           : Advanced Simple@L5\nFormat settings, BVOP                    : 2\nFormat settings, QPel                    : No\nFormat settings, GMC                     : No warppoints\nFormat settings, Matrix                  : Default (H.263)\nMuxing mode                              : Packed bitstream\nCodec ID                                 : XVID\nCodec ID/Hint                            : XviD\nDuration                                 : 2h 12mn\nBit rate                                 : 636 Kbps\nWidth                                    : 656 pixels\nHeight                                   : 352 pixels\nDisplay aspect ratio                     : 1.85:1\nFrame rate                               : 23.976 fps\nColor space                              : YUV\nChroma subsampling                       : 4:2:0\nBit depth                                : 8 bits\nScan type                                : Progressive\nCompression mode                         : Lossy\nBits/(Pixel*Frame)                       : 0.115\nStream size                              : 601 MiB (86%)\nWriting library                          : XviD 58\n\n**********************************************************************************\n\nAudio\n\nID                                       : 1\nFormat                                   : MPEG Audio\nFormat version                           : Version 1\nFormat profile                           : Layer 3\nMode                                     : Joint stereo\nMode extension                           : MS Stereo\nCodec ID                                 : 55\nCodec ID/Hint                            : MP3\nDuration                                 : 2h 12mn\nBit rate mode                            : Constant\nBit rate                                 : 96.0 Kbps\nChannel(s)                               : 2 channels\nSampling rate                            : 48.0 KHz\nCompression mode                         : Lossy\nStream size                              : 90.7 MiB (13%)\nAlignment                                : Aligned on interleaves\nInterleave, duration                     : 42 ms (1.00 video frame)\nInterleave, preload duration             : 504 ms\nWriting library                          : Lame3.97\nSample                                   : No\nSubs                                     : English (.srt)\nSource                                   : SPARKS (thx mate)\n\n**********************************************************************************\n\nIMDB:\n &lt;a href=&quot;\nhttp://www.imdb.com/title/tt1327773/&quot; rel=&quot;nofollow&quot; target=&quot;_NEW&quot;&gt;\nhttp://www.imdb.com/title/tt1327773/&lt;/a&gt;\n\n**********************************************************************************\n\nCast:\n\nForest Whitaker, Oprah Winfrey, John Cusack \n\nPlot:\n\nAs Cecil Gaines serves eight presidents during his tenure as a butler at the White House, the civil\nrights movement, Vietnam, and other major events affect this man's life, family, and American society. \n\n**********************************************************************************\n\nScreens: \n &lt;a href=&quot;\nhttp://s7.postimg.org/nt79zte3v/Ace00016.jpg&quot; rel=&quot;nofollow&quot; target=&quot;_NEW&quot;&gt;\nhttp://s7.postimg.org/nt79zte3v/Ace00016.jpg&lt;/a&gt;\n &lt;a href=&quot;\nhttp://s7.postimg.org/uoriix8kr/Ace00018.jpg&quot; rel=&quot;nofollow&quot; target=&quot;_NEW&quot;&gt;\nhttp://s7.postimg.org/uoriix8kr/Ace00018.jpg&lt;/a&gt;\n &lt;a href=&quot;\nhttp://s7.postimg.org/6refxpz8r/Ace00017.jpg&quot; rel=&quot;nofollow&quot; target=&quot;_NEW&quot;&gt;\nhttp://s7.postimg.org/6refxpz8r/Ace00017.jpg&lt;/a&gt;\n &lt;a href=&quot;\nhttp://s7.postimg.org/6h6xedkmj/Ace00020.jpg&quot; rel=&quot;nofollow&quot; target=&quot;_NEW&quot;&gt;\nhttp://s7.postimg.org/6h6xedkmj/Ace00020.jpg&lt;/a&gt;","torrent":{"xt":"urn:btih:31d78b8ded5d7bf23867210ce8cad2a1faa1c117","amp;dn":"The.Butler.2013.BRRiP.XviD+Acesn8s","amp;tr":["udp%3A%2F%2Ftracker.openbittorrent.com%3A80","udp%3A%2F%2Fopen.demonii.com%3A1337","udp%3A%2F%2Ftracker.coppersurfer.tk%3A6969","udp%3A%2F%2Fexodus.desync.com%3A6969"],"infoHash":"31d78b8ded5d7bf23867210ce8cad2a1faa1c117","infoHashBuffer":{"type":"Buffer","data":[49,215,139,141,237,93,123,242,56,103,33,12,232,202,210,161,250,161,193,23]},"announce":[],"urlList":[]}}